<svg version="1.1" viewBox="0.0 0.0 512.0 512.0" fill="none" stroke="none" stroke-linecap="square" stroke-miterlimit="10" xmlns:xlink="http://www.w3.org/1999/xlink" xmlns="http://www.w3.org/2000/svg"><clipPath id="g3a46b47d0c8_1_6.0"><path d="m0 0l512.0 0l0 512.0l-512.0 0l0 -512.0z" clip-rule="nonzero"/></clipPath><g clip-path="url(#g3a46b47d0c8_1_6.0)"><path fill="#000000" fill-opacity="0.0" d="m0 0l512.0 0l0 512.0l-512.0 0z" fill-rule="evenodd"/><path fill="#66d1ff" d="m0 85.33504l0 0c0 -47.12924 38.2058 -85.33504 85.33504 -85.33504l341.3299 0l0 0c22.632263 0 44.337585 8.99063 60.341003 24.994055c16.003418 16.003424 24.99405 37.708725 24.99405 60.34098l0 341.3299c0 47.129242 -38.20581 85.33505 -85.33505 85.33505l-341.3299 0c-47.12924 0 -85.33504 -38.20581 -85.33504 -85.33505z" fill-rule="evenodd"/><path fill="#ffffff" d="m208.11496 386.72186q-6.078125 6.078125 -14.828125 6.078125q-8.734375 0 -14.8125 -6.078125q-6.078125 -6.078125 -6.078125 -14.828125l0 -235.59375q0 -8.734367 6.078125 -14.812492q6.078125 -6.09375 14.8125 -6.09375q8.75 0 14.828125 6.09375q6.078125 6.078125 6.078125 14.812492l0 100.3125q0 0.390625 0.390625 0.390625l0.75 -0.390625l87.78125 -104.875q14.0625 -16.343742 35.34375 -16.343742l6.078125 0q6.078125 0 8.921875 5.703125q2.859375 5.703125 -1.3125 10.640617l-97.671875 114.375q-1.890625 2.671875 -0.375 4.953125l102.21875 125.015625q4.1875 5.3125 1.328125 11.015625q-2.84375 5.703125 -9.3125 5.703125l-6.078125 0q-21.65625 0 -34.953125 -16.71875l-91.96875 -115.90625q-0.375 -0.375 -0.765625 -0.375q-0.375 0 -0.375 0.375l0 111.71875q0 8.75 -6.078125 14.828125z" fill-rule="nonzero"/></g></svg>