<svg version="1.1" viewBox="0.0 0.0 258.0 144.249343832021" fill="none" stroke="none" stroke-linecap="square" stroke-miterlimit="10" xmlns:xlink="http://www.w3.org/1999/xlink" xmlns="http://www.w3.org/2000/svg"><clipPath id="p.0"><path d="m0 0l258.0 0l0 144.24934l-258.0 0l0 -144.24934z" clip-rule="nonzero"/></clipPath><g clip-path="url(#p.0)"><path fill="#000000" fill-opacity="0.0" d="m0 0l258.0 0l0 144.24934l-258.0 0z" fill-rule="evenodd"/><path fill="#000000" fill-opacity="0.0" d="m92.21225 58.26677l101.291016 0l0 27.716248l-101.291016 0z" fill-rule="evenodd"/><path fill="#000000" d="m102.55573 79.4442q-0.34375 0.34375 -0.84375 0.34375q-0.484375 0 -0.828125 -0.34375q-0.328125 -0.34375 -0.328125 -0.828125l0 -13.1875q0 -0.5 0.328125 -0.828125q0.34375 -0.34375 0.828125 -0.34375q0.5 0 0.84375 0.34375q0.34375 0.328125 0.34375 0.828125l0 5.609375q0 0.03125 0.015625 0.03125l0.046875 -0.03125l4.90625 -5.875q0.796875 -0.90625 1.984375 -0.90625l0.34375 0q0.328125 0 0.484375 0.328125q0.171875 0.3125 -0.0625 0.578125l-5.46875 6.40625q-0.109375 0.15625 -0.015625 0.28125l5.71875 7.0q0.234375 0.296875 0.0625 0.625q-0.15625 0.3125 -0.515625 0.3125l-0.34375 0q-1.203125 0 -1.953125 -0.9375l-5.140625 -6.484375q-0.03125 -0.03125 -0.046875 -0.03125q-0.015625 0 -0.015625 0.03125l0 6.25q0 0.484375 -0.34375 0.828125zm12.853867 0q-0.34375 0.34375 -0.84375 0.34375q-0.484375 0 -0.828125 -0.34375q-0.328125 -0.34375 -0.328125 -0.828125l0 -13.1875q0 -0.5 0.328125 -0.828125q0.34375 -0.34375 0.828125 -0.34375q0.5 0 0.84375 0.34375q0.34375 0.328125 0.34375 0.828125l0 5.609375q0 0.03125 0.015625 0.03125l0.046875 -0.03125l4.90625 -5.875q0.796875 -0.90625 1.984375 -0.90625l0.34375 0q0.328125 0 0.484375 0.328125q0.171875 0.3125 -0.0625 0.578125l-5.46875 6.40625q-0.109375 0.15625 -0.015625 0.28125l5.71875 7.0q0.234375 0.296875 0.0625 0.625q-0.15625 0.3125 -0.515625 0.3125l-0.34375 0q-1.203125 0 -1.953125 -0.9375l-5.140625 -6.484375q-0.03125 -0.03125 -0.046875 -0.03125q-0.015625 0 -0.015625 0.03125l0 6.25q0 0.484375 -0.34375 0.828125zm16.273933 0.5625q-3.28125 0 -5.3750076 -2.171875q-2.078125 -2.171875 -2.078125 -5.8125q0 -3.703125 2.109375 -5.84375q2.1093826 -2.140625 5.7656326 -2.140625q1.5 0 2.75 0.21875q0.421875 0.078125 0.703125 0.421875q0.28125 0.34375 0.28125 0.78125q0 0.375 -0.296875 0.59375q-0.296875 0.21875 -0.671875 0.140625q-1.125 -0.28125 -2.546875 -0.28125q-2.75 0 -4.234375 1.5625q-1.4687576 1.5625 -1.4687576 4.546875q0 2.84375 1.4375076 4.484375q1.453125 1.625 3.84375 1.625q1.1875 0 2.296875 -0.34375q0.140625 -0.015625 0.140625 -0.21875l0 -4.953125q0 -0.1875 -0.1875 -0.1875l-3.46875 0q-0.375 0 -0.640625 -0.265625q-0.265625 -0.265625 -0.265625 -0.640625q0 -0.390625 0.265625 -0.65625q0.265625 -0.265625 0.640625 -0.265625l4.6875 0q0.484375 0 0.84375 0.359375q0.359375 0.359375 0.359375 0.84375l0 6.03125q0 0.546875 -0.3125 1.015625q-0.296875 0.453125 -0.8125 0.625q-1.65625 0.53125 -3.765625 0.53125zm12.316055 -7.140625q-2.421875 -0.828125 -3.5 -1.984375q-1.0625 -1.15625 -1.0625 -2.796875q0 -1.875 1.1875 -2.953125q1.1875 -1.09375 3.28125 -1.09375q1.953125 0 3.4375 0.46875q0.453125 0.15625 0.734375 0.578125q0.296875 0.40625 0.296875 0.90625q0 0.375 -0.328125 0.5625q-0.3125 0.1875 -0.65625 0.046875q-1.609375 -0.6875 -3.28125 -0.6875q-1.140625 0 -1.765625 0.578125q-0.609375 0.578125 -0.609375 1.59375q0 0.828125 0.5625 1.5q0.578125 0.671875 1.703125 1.046875q2.8125 0.9375 3.90625 2.09375q1.109375 1.140625 1.109375 2.90625q0 2.15625 -1.328125 3.265625q-1.3125 1.109375 -3.890625 1.109375q-1.6875 0 -3.046875 -0.515625q-1.0 -0.40625 -1.0 -1.578125q0 -0.359375 0.3125 -0.53125q0.328125 -0.171875 0.640625 0q1.328125 0.703125 2.875 0.703125q3.09375 0 3.09375 -2.453125q0 -0.9375 -0.609375 -1.59375q-0.609375 -0.65625 -2.0625 -1.171875zm8.539764 1.640625q-0.359375 0 -0.625 -0.265625q-0.265625 -0.265625 -0.265625 -0.625q0 -0.359375 0.265625 -0.625q0.265625 -0.265625 0.625 -0.265625l5.03125 0q0.359375 0 0.625 0.265625q0.265625 0.265625 0.265625 0.625q0 0.359375 -0.265625 0.625q-0.265625 0.265625 -0.625 0.265625l-5.03125 0zm18.259186 -7.671875l-3.875 3.765625q-0.015625 0.015625 -0.015625 0.046875q0 0.015625 0.015625 0.015625l0.40625 0q2.0625 0 3.203125 1.09375q1.15625 1.09375 1.15625 3.140625q0 2.421875 -1.484375 3.765625q-1.46875 1.34375 -4.15625 1.34375q-1.5 0 -3.0 -0.40625q-0.46875 -0.125 -0.75 -0.515625q-0.28125 -0.40625 -0.28125 -0.921875q0 -0.375 0.328125 -0.578125q0.328125 -0.21875 0.6875 -0.09375q1.6875 0.59375 3.015625 0.59375q1.578125 0 2.4375 -0.828125q0.859375 -0.828125 0.859375 -2.359375q0 -1.296875 -0.921875 -1.921875q-0.921875 -0.640625 -3.015625 -0.640625l-0.59375 0q-0.359375 0 -0.625 -0.265625q-0.265625 -0.265625 -0.265625 -0.625q0 -0.90625 0.640625 -1.515625l3.921875 -3.703125q0.015625 -0.015625 0.015625 -0.03125q0 -0.03125 -0.015625 -0.03125l-5.625 0q-0.40625 0 -0.6875 -0.265625q-0.265625 -0.28125 -0.265625 -0.6875q0 -0.40625 0.265625 -0.671875q0.28125 -0.28125 0.6875 -0.28125l7.65625 0q0.40625 0 0.6875 0.28125q0.28125 0.265625 0.28125 0.671875q0 0.984375 -0.6875 1.625z" fill-rule="nonzero"/><path fill="#000000" d="m178.51822 77.80357q-0.015625 0.03125 -0.015625 0.046875q0 0.015625 0.015625 0.015625l5.625 0q0.40625 0 0.671875 0.28125q0.28125 0.28125 0.28125 0.6875q0 0.40625 -0.28125 0.6875q-0.265625 0.265625 -0.671875 0.265625l-7.875 0q-0.40625 0 -0.6875 -0.265625q-0.265625 -0.28125 -0.265625 -0.6875q0 -0.9375 0.734375 -1.5625q3.875 -3.125 5.25 -4.96875q1.375 -1.84375 1.375 -3.578125q0 -2.734375 -2.890625 -2.734375q-1.421875 0 -3.15625 0.75q-0.359375 0.15625 -0.6875 -0.03125q-0.3125 -0.203125 -0.3125 -0.578125q0 -0.53125 0.28125 -0.953125q0.28125 -0.4375 0.765625 -0.578125q1.71875 -0.5625 3.421875 -0.5625q2.390625 0 3.6875 1.1875q1.3125 1.171875 1.3125 3.28125q0 2.109375 -1.359375 4.109375q-1.34375 1.984375 -5.21875 5.1875z" fill-rule="nonzero"/><path fill="#66d1ff" d="m64.496 62.88456l0 0c0 -2.551262 2.0682068 -4.6194687 4.6194687 -4.6194687l18.47731 0l0 0c1.2251587 0 2.4001389 0.48669434 3.2664566 1.3530121c0.86631775 0.86631775 1.3530121 2.041298 1.3530121 3.2664566l0 18.47731c0 2.551262 -2.0682068 4.6194687 -4.6194687 4.6194687l-18.47731 0c-2.551262 0 -4.6194687 -2.0682068 -4.6194687 -4.6194687z" fill-rule="evenodd"/><path fill="#ffffff" d="m75.78043 78.9125q-0.328125 0.328125 -0.796875 0.328125q-0.46875 0 -0.796875 -0.328125q-0.328125 -0.328125 -0.328125 -0.796875l0 -12.65625q0 -0.46875 0.328125 -0.796875q0.328125 -0.328125 0.796875 -0.328125q0.46875 0 0.796875 0.328125q0.328125 0.328125 0.328125 0.796875l0 5.390625q0 0.015625 0.015625 0.015625l0.046875 -0.015625l4.71875 -5.640625q0.75 -0.875 1.890625 -0.875l0.328125 0q0.328125 0 0.484375 0.3125q0.15625 0.296875 -0.078125 0.5625l-5.25 6.140625q-0.09375 0.15625 -0.015625 0.265625l5.5 6.71875q0.21875 0.296875 0.0625 0.609375q-0.140625 0.296875 -0.5 0.296875l-0.328125 0q-1.15625 0 -1.875 -0.90625l-4.9375 -6.21875q-0.015625 -0.015625 -0.046875 -0.015625q-0.015625 0 -0.015625 0.015625l0 6.0q0 0.46875 -0.328125 0.796875z" fill-rule="nonzero"/></g></svg>