<svg version="1.1" viewBox="0.0 0.0 202.0 43.3989501312336" fill="none" stroke="none" stroke-linecap="square" stroke-miterlimit="10" xmlns:xlink="http://www.w3.org/1999/xlink" xmlns="http://www.w3.org/2000/svg" width="201.779" height="42.651"><clipPath id="p.0"><path d="m0 0l202.0 0l0 43.39895l-202.0 0l0 -43.39895z" clip-rule="nonzero"/></clipPath><g clip-path="url(#p.0)"><path fill="#000000" fill-opacity="0.0" d="m0 0l202.0 0l0 43.39895l-202.0 0z" fill-rule="evenodd"/><path fill="#000000" fill-opacity="0.0" d="m43.401573 0l158.61417 0l0 43.401573l-158.61417 0z" fill-rule="evenodd"/><path fill="#000000" d="m59.579117 33.169537q-0.53125 0.53125 -1.296875 0.53125q-0.765625 0 -1.296875 -0.53125q-0.53125 -0.53125 -0.53125 -1.296875l0 -20.671875q0 -0.765625 0.53125 -1.296875q0.53125 -0.53125 1.296875 -0.53125q0.765625 0 1.296875 0.53125q0.546875 0.53125 0.546875 1.296875l0 8.796875q0 0.03125 0.03125 0.03125l0.0625 -0.03125l7.703125 -9.1875q1.234375 -1.4375 3.09375 -1.4375l0.53125 0q0.53125 0 0.78125 0.5q0.25 0.5 -0.109375 0.9375l-8.5625 10.03125q-0.171875 0.234375 -0.046875 0.421875l8.96875 10.96875q0.375 0.46875 0.125 0.96875q-0.25 0.5 -0.828125 0.5l-0.53125 0q-1.890625 0 -3.0625 -1.46875l-8.0625 -10.15625q-0.03125 -0.046875 -0.0625 -0.046875q-0.03125 0 -0.03125 0.046875l0 9.796875q0 0.765625 -0.546875 1.296875zm20.130142 0q-0.53125 0.53125 -1.296875 0.53125q-0.765625 0 -1.296875 -0.53125q-0.53125 -0.53125 -0.53125 -1.296875l0 -20.671875q0 -0.765625 0.53125 -1.296875q0.53125 -0.53125 1.296875 -0.53125q0.765625 0 1.296875 0.53125q0.546875 0.53125 0.546875 1.296875l0 8.796875q0 0.03125 0.03125 0.03125l0.0625 -0.03125l7.703125 -9.1875q1.234375 -1.4375 3.09375 -1.4375l0.53125 0q0.53125 0 0.78125 0.5q0.25 0.5 -0.109375 0.9375l-8.5625 10.03125q-0.171875 0.234375 -0.046875 0.421875l8.96875 10.96875q0.375 0.46875 0.125 0.96875q-0.25 0.5 -0.828125 0.5l-0.53125 0q-1.890625 0 -3.0625 -1.46875l-8.0625 -10.15625q-0.03125 -0.046875 -0.0625 -0.046875q-0.03125 0 -0.03125 0.046875l0 9.796875q0 0.765625 -0.546875 1.296875zm25.49472 0.859375q-5.125 0 -8.390625 -3.390625q-3.265625 -3.40625 -3.265625 -9.109375q0 -5.796875 3.296875 -9.140625q3.296875 -3.34375 9.03125 -3.34375q2.328125 0 4.296875 0.328125q0.671875 0.125 1.09375 0.671875q0.4375 0.53125 0.4375 1.21875q0 0.578125 -0.46875 0.9375q-0.453125 0.34375 -1.03125 0.203125q-1.765625 -0.4375 -4.0 -0.4375q-4.296875 0 -6.609375 2.453125q-2.3125 2.453125 -2.3125 7.109375q0 4.46875 2.265625 7.03125q2.265625 2.546875 6.0 2.546875q1.859375 0 3.59375 -0.546875q0.234375 -0.03125 0.234375 -0.328125l0 -7.765625q0 -0.296875 -0.296875 -0.296875l-5.4375 0q-0.59375 0 -1.015625 -0.40625q-0.421875 -0.421875 -0.421875 -1.015625q0 -0.609375 0.421875 -1.015625q0.421875 -0.421875 1.015625 -0.421875l7.328125 0q0.78125 0 1.34375 0.5625q0.5625 0.5625 0.5625 1.328125l0 9.4375q0 0.859375 -0.484375 1.578125q-0.484375 0.71875 -1.28125 0.984375q-2.59375 0.828125 -5.90625 0.828125zm19.301544 -11.15625q-3.796875 -1.296875 -5.484375 -3.109375q-1.671875 -1.828125 -1.671875 -4.390625q0 -2.9375 1.859375 -4.625q1.859375 -1.703125 5.140625 -1.703125q3.0625 0 5.390625 0.734375q0.703125 0.21875 1.140625 0.875q0.453125 0.65625 0.453125 1.453125q0 0.5625 -0.5 0.859375q-0.5 0.296875 -1.03125 0.078125q-2.53125 -1.078125 -5.125 -1.078125q-1.796875 0 -2.765625 0.90625q-0.96875 0.890625 -0.96875 2.5q0 1.296875 0.890625 2.34375q0.90625 1.046875 2.671875 1.65625q4.40625 1.46875 6.109375 3.265625q1.71875 1.796875 1.71875 4.5625q0 3.359375 -2.0625 5.09375q-2.0625 1.734375 -6.09375 1.734375q-2.640625 0 -4.765625 -0.796875q-1.5625 -0.625 -1.5625 -2.46875q0 -0.5625 0.5 -0.828125q0.5 -0.265625 1.0 0q2.0625 1.09375 4.5 1.09375q4.828125 0 4.828125 -3.828125q0 -1.46875 -0.953125 -2.5q-0.953125 -1.03125 -3.21875 -1.828125zm13.369949 2.5625q-0.5625 0 -0.984375 -0.40625q-0.421875 -0.421875 -0.421875 -0.984375q0 -0.578125 0.421875 -0.984375q0.421875 -0.421875 0.984375 -0.421875l7.859375 0q0.5625 0 0.984375 0.421875q0.421875 0.40625 0.421875 0.984375q0 0.5625 -0.421875 0.984375q-0.421875 0.40625 -0.984375 0.40625l-7.859375 0zm28.594376 -12.03125l-6.0625 5.90625q-0.03125 0.03125 -0.03125 0.0625q0 0.03125 0.03125 0.03125l0.625 0q3.234375 0 5.03125 1.71875q1.796875 1.71875 1.796875 4.90625q0 3.8125 -2.3125 5.90625q-2.3125 2.09375 -6.515625 2.09375q-2.359375 0 -4.703125 -0.625q-0.71875 -0.203125 -1.171875 -0.8125q-0.453125 -0.625 -0.453125 -1.421875q0 -0.609375 0.515625 -0.9375q0.515625 -0.328125 1.078125 -0.125q2.640625 0.921875 4.734375 0.921875q2.46875 0 3.8125 -1.296875q1.359375 -1.296875 1.359375 -3.703125q0 -2.03125 -1.453125 -3.015625q-1.453125 -0.984375 -4.71875 -0.984375l-0.921875 0q-0.578125 0 -1.0 -0.40625q-0.40625 -0.421875 -0.40625 -0.984375q0 -1.4375 1.0 -2.375l6.125 -5.796875q0.046875 -0.03125 0.046875 -0.0625q0 -0.03125 -0.046875 -0.03125l-8.796875 0q-0.625 0 -1.0625 -0.4375q-0.4375 -0.4375 -0.4375 -1.0625q0 -0.640625 0.4375 -1.0625q0.4375 -0.4375 1.0625 -0.4375l12.0 0q0.640625 0 1.0625 0.4375q0.4375 0.421875 0.4375 1.0625q0 1.53125 -1.0625 2.53125zm12.090424 17.203125q-0.03125 0.03125 -0.03125 0.0625q0 0.03125 0.03125 0.03125l8.796875 0q0.640625 0 1.0625 0.4375q0.4375 0.421875 0.4375 1.0625q0 0.640625 -0.4375 1.078125q-0.421875 0.421875 -1.0625 0.421875l-12.328125 0q-0.625 0 -1.0625 -0.421875q-0.4375 -0.4375 -0.4375 -1.078125q0 -1.46875 1.171875 -2.4375q6.0625 -4.890625 8.203125 -7.765625q2.15625 -2.890625 2.15625 -5.625q0 -4.265625 -4.53125 -4.265625q-2.234375 0 -4.921875 1.15625q-0.578125 0.234375 -1.078125 -0.0625q-0.5 -0.296875 -0.5 -0.890625q0 -0.84375 0.4375 -1.5q0.4375 -0.671875 1.203125 -0.90625q2.703125 -0.859375 5.359375 -0.859375q3.734375 0 5.78125 1.84375q2.046875 1.84375 2.046875 5.15625q0 3.296875 -2.109375 6.421875q-2.109375 3.109375 -8.1875 8.140625z" fill-rule="nonzero"/><path fill="#66d1ff" d="m0 7.231116l0 0c0 -3.9950845 3.238656 -7.2337403 7.2337403 -7.2337403l28.934095 0l0 0c1.9185066 0 3.758438 0.76212406 5.1150246 2.1187136c1.3565903 1.3565896 2.1187134 3.1965199 2.1187134 5.115027l0 28.934095c0 3.9950829 -3.238655 7.233738 -7.233738 7.233738l-28.934095 0c-3.9950843 0 -7.2337403 -3.238655 -7.2337403 -7.233738z" fill-rule="evenodd"/><path fill="#ffffff" d="m17.66177 32.90254q-0.5 0.515625 -1.25 0.515625q-0.73437405 0 -1.249999 -0.515625q-0.5 -0.515625 -0.5 -1.25l0 -19.828125q0 -0.75 0.5 -1.25q0.515625 -0.515625 1.249999 -0.515625q0.75 0 1.25 0.515625q0.515625 0.5 0.515625 1.25l0 8.4375q0 0.03125 0.03125 0.03125l0.0625 -0.03125l7.390625 -8.828125q1.1875 -1.375 2.984375 -1.375l0.515625 0q0.5 0 0.734375 0.484375q0.25 0.46875 -0.09375 0.890625l-8.234375 9.625q-0.15625 0.234375 -0.03125 0.421875l8.609375 10.53125q0.359375 0.453125 0.109375 0.9375q-0.234375 0.46875 -0.78125 0.46875l-0.515625 0q-1.8125 0 -2.9375 -1.40625l-7.75 -9.765625q-0.03125 -0.03125 -0.0625 -0.03125q-0.03125 0 -0.03125 0.03125l0 9.40625q0 0.734375 -0.515625 1.25z" fill-rule="nonzero"/></g></svg>